<?xml version="1.0" standalone="no"?>
<!DOCTYPE svg PUBLIC "-//W3C//DTD SVG 20010904//EN"
 "http://www.w3.org/TR/2001/REC-SVG-20010904/DTD/svg10.dtd">
<svg version="1.0" xmlns="http://www.w3.org/2000/svg"
 width="307.000000pt" height="339.000000pt" viewBox="0 0 307.000000 339.000000"
 preserveAspectRatio="xMidYMid meet">

<g transform="translate(0.000000,339.000000) scale(0.100000,-0.100000)"
fill="#008080" stroke="none">
<path d="M1297 3382 c-3 -4 -7 -61 -11 -127 -20 -341 -120 -616 -370 -1010
-158 -251 -306 -436 -331 -415 -7 6 -18 52 -24 103 -22 170 -77 377 -101 377
-5 0 -21 -38 -35 -86 -27 -89 -79 -213 -212 -504 -201 -438 -244 -657 -180
-901 52 -198 102 -290 232 -427 137 -145 345 -310 474 -376 l34 -18 -5 24 c-3
12 -18 63 -32 113 -64 213 -19 418 154 701 106 173 164 314 194 474 16 82 30
120 45 120 13 0 55 -59 94 -131 45 -83 81 -198 102 -329 9 -57 18 -106 20
-108 7 -7 122 231 144 298 34 104 49 202 63 403 6 103 15 186 20 185 4 -2 79
-72 167 -155 257 -247 392 -414 501 -625 97 -187 102 -205 107 -413 6 -223 -1
-265 -73 -418 -31 -65 -53 -121 -50 -124 7 -7 188 122 295 212 210 176 368
383 455 598 149 370 117 760 -98 1193 -110 220 -245 417 -434 633 l-39 45 -7
-183 c-5 -106 -14 -203 -22 -230 -14 -46 -80 -144 -99 -145 -14 -1 -59 92
-101 209 -121 342 -331 651 -579 854 -130 107 -287 203 -298 183z"/>
</g>
</svg>
