<svg xmlns="http://www.w3.org/2000/svg" viewBox="0 0 128 128"><title>muted_input</title><g id="muted_input.svg"><path d="M88.62,54.15V64A24.69,24.69,0,0,1,64,88.62a25.26,25.26,0,0,1-8.38-1.46l-7.39,7.39A34,34,0,0,0,64,98.46,34.5,34.5,0,0,0,98.46,64V54.15a4.92,4.92,0,1,1,9.85,0V64a44.31,44.31,0,0,1-39.38,44v10.15H88.62a4.92,4.92,0,0,1,0,9.85H39.38a4.92,4.92,0,1,1,0-9.85H59.08V108A43.3,43.3,0,0,1,41,101.77L21.46,121.31a2.46,2.46,0,0,1-3.54,0L11.62,115a2.46,2.46,0,0,1,0-3.54l94.92-94.92a2.46,2.46,0,0,1,3.54,0l6.31,6.31a2.46,2.46,0,0,1,0,3.54ZM22.92,80.46A43.3,43.3,0,0,1,19.69,64V54.15a4.92,4.92,0,1,1,9.85,0V64a35.94,35.94,0,0,0,1.15,8.69ZM39.38,64V24.62a24.62,24.62,0,0,1,47.77-8.38Z" fill="#c9070a"/></g></svg>